<svg height="512" viewBox="0 0 128 128" width="512" xmlns="http://www.w3.org/2000/svg"><g><g><path d="m5.75 111.5h116.5a4 4 0 0 0 4-4v-71.745h-124.5v71.745a4 4 0 0 0 4 4z" fill="#fff5f5"/><path d="m1.75 20.5v15.255h124.5v-15.255a4 4 0 0 0 -4-4h-116.5a4 4 0 0 0 -4 4z" fill="#596c76"/><path d="m116.242 27.879h-5.75a1.75 1.75 0 0 1 0-3.5h5.75a1.75 1.75 0 0 1 0 3.5z" fill="#ff9100"/><path d="m100.867 27.879h-5.75a1.75 1.75 0 0 1 0-3.5h5.75a1.75 1.75 0 0 1 0 3.5z" fill="#76e2f8"/><path d="m85.492 27.879h-5.75a1.75 1.75 0 0 1 0-3.5h5.75a1.75 1.75 0 0 1 0 3.5z" fill="#fff5f5"/><path d="m59.248 45.755h57.002v34.898h-57.002z" fill="#efe2dd"/><path d="m59.248 72.653 17.002-11.625 40 15.875v3.75h-57.002z" fill="#b9dd39"/><path d="m103.937 57.872a4.719 4.719 0 1 1 -4.718-4.719 4.718 4.718 0 0 1 4.718 4.719z" fill="#ff9100"/><g fill="#596c76"><path d="m49.241 47.505h-37.491a1.75 1.75 0 0 1 0-3.5h37.491a1.75 1.75 0 0 1 0 3.5z"/><path d="m49.241 66.086h-37.491a1.75 1.75 0 0 1 0-3.5h37.491a1.75 1.75 0 0 1 0 3.5z"/><path d="m49.241 84.666h-37.491a1.75 1.75 0 0 1 0-3.5h37.491a1.75 1.75 0 0 1 0 3.5z"/><g><path d="m45.237 56.8h-29.484a1.75 1.75 0 0 1 0-3.5h29.484a1.75 1.75 0 1 1 0 3.5z"/><path d="m45.237 75.376h-29.484a1.75 1.75 0 0 1 0-3.5h29.484a1.75 1.75 0 0 1 0 3.5z"/><path d="m116.25 93.957h-100.497a1.75 1.75 0 0 1 0-3.5h100.5a1.75 1.75 0 0 1 0 3.5z"/></g><path d="m116.25 103.247h-104.5a1.75 1.75 0 0 1 0-3.5h104.5a1.75 1.75 0 0 1 0 3.5z"/></g></g><g><path d="m122.25 14.753h-116.5a5.757 5.757 0 0 0 -5.75 5.747v87a5.757 5.757 0 0 0 5.75 5.75h116.5a5.757 5.757 0 0 0 5.75-5.75v-87a5.757 5.757 0 0 0 -5.75-5.747zm0 94.994h-116.5a2.253 2.253 0 0 1 -2.25-2.247v-69.994h22.25a1.75 1.75 0 0 0 0-3.5h-22.25v-13.506a2.253 2.253 0 0 1 2.25-2.25h116.5a2.253 2.253 0 0 1 2.25 2.25v13.5h-64.625a1.75 1.75 0 0 0 0 3.5h64.625v70a2.253 2.253 0 0 1 -2.25 2.247z"/><path d="m40.388 37.506h4.849a1.75 1.75 0 0 0 0-3.5h-4.849a1.75 1.75 0 0 0 0 3.5z"/><path d="m110.492 27.879h5.75a1.75 1.75 0 0 0 0-3.5h-5.75a1.75 1.75 0 0 0 0 3.5z"/><path d="m95.117 27.879h5.75a1.75 1.75 0 0 0 0-3.5h-5.75a1.75 1.75 0 0 0 0 3.5z"/><path d="m79.742 27.879h5.75a1.75 1.75 0 0 0 0-3.5h-5.75a1.75 1.75 0 0 0 0 3.5z"/><path d="m116.25 44.005h-57a1.75 1.75 0 0 0 -1.75 1.75v34.9a1.75 1.75 0 0 0 1.75 1.75h57a1.75 1.75 0 0 0 1.75-1.75v-34.9a1.75 1.75 0 0 0 -1.75-1.75zm-1.75 3.5v26.821l-37.6-14.926a1.756 1.756 0 0 0 -1.633.183l-14.267 9.754v-21.832zm0 31.4h-53.5v-5.328l15.47-10.577 38.03 15.092z"/><path d="m99.219 64.341a6.481 6.481 0 0 0 4.805-2.139 1.75 1.75 0 1 0 -2.6-2.344 2.969 2.969 0 1 1 -2.205-4.958 1.75 1.75 0 0 0 0-3.5 6.469 6.469 0 1 0 0 12.938z"/><path d="m11.75 47.505h37.491a1.75 1.75 0 0 0 0-3.5h-37.491a1.75 1.75 0 0 0 0 3.5z"/><path d="m11.75 66.086h37.491a1.75 1.75 0 0 0 0-3.5h-37.491a1.75 1.75 0 0 0 0 3.5z"/><path d="m11.75 84.666h37.491a1.75 1.75 0 0 0 0-3.5h-37.491a1.75 1.75 0 0 0 0 3.5z"/><path d="m15.753 53.3a1.75 1.75 0 0 0 0 3.5h29.484a1.75 1.75 0 1 0 0-3.5z"/><path d="m15.753 71.876a1.75 1.75 0 0 0 0 3.5h29.484a1.75 1.75 0 0 0 0-3.5z"/><path d="m116.25 90.457h-100.497a1.75 1.75 0 0 0 0 3.5h100.5a1.75 1.75 0 0 0 0-3.5z"/><path d="m116.25 99.747h-104.5a1.75 1.75 0 0 0 0 3.5h104.5a1.75 1.75 0 0 0 0-3.5z"/></g></g></svg>